<svg width="63" height="63" viewBox="0 0 63 63" fill="none" xmlns="http://www.w3.org/2000/svg">
<path d="M24.7773 43.7903C24.4413 43.7903 24.1053 43.6617 23.848 43.407L6.21592 25.7723C4.16842 23.7248 4.16842 20.3937 6.21592 18.3462C8.26867 16.2987 11.5972 16.3039 13.6394 18.3462L29.4183 34.125C29.9302 34.6369 29.9302 35.469 29.4183 35.9809C28.9064 36.4928 28.0743 36.4928 27.5624 35.9809L11.7835 20.202C10.765 19.1835 9.1008 19.1809 8.0718 20.202C7.5783 20.6982 7.30267 21.357 7.30267 22.0579C7.30267 22.7614 7.57567 23.4203 8.0718 23.9164L25.7066 41.5485C26.2184 42.0604 26.2184 42.8925 25.7066 43.4044C25.4493 43.6617 25.1133 43.7903 24.7773 43.7903Z" fill="black"/>
<path d="M34.0593 30.7966C33.7233 30.7966 33.3873 30.668 33.13 30.4133L15.4979 12.7786C14.4715 11.7522 12.8099 11.7522 11.7835 12.7786C11.29 13.2747 11.0144 13.9336 11.0144 14.6345C11.0144 15.3353 11.2874 15.9942 11.7835 16.4903L13.6394 18.3462C14.1513 18.8581 14.1513 19.6902 13.6394 20.2021C13.1275 20.714 12.2954 20.714 11.7835 20.2021L9.92765 18.3462C8.9354 17.354 8.3894 16.0362 8.3894 14.6345C8.3894 13.2327 8.9354 11.915 9.92765 10.9227C11.9095 8.94083 15.3667 8.93558 17.3538 10.9227L34.9859 28.5575C35.4978 29.0693 35.4978 29.9015 34.9859 30.4133C34.7286 30.6706 34.3953 30.7966 34.0593 30.7966Z" fill="black"/>
<path d="M39.6296 25.229C39.2936 25.229 38.9576 25.1004 38.7003 24.8457L24.7773 10.9227C23.7509 9.89636 22.0919 9.89636 21.0656 10.9227C20.0418 11.9465 20.0418 13.6107 21.0656 14.6345C21.5774 15.1464 21.5774 15.9785 21.0656 16.4904C20.5537 17.0022 19.7216 17.0022 19.2097 16.4904C17.1648 14.4455 17.1648 11.1117 19.2097 9.06686C21.2546 7.02198 24.5883 7.02198 26.6332 9.06686L40.5562 22.9899C41.0681 23.5017 41.0681 24.3339 40.5562 24.8457C40.3016 25.1004 39.9656 25.229 39.6296 25.229Z" fill="black"/>
<path d="M38.1963 59.4667C37.3117 59.4667 36.4165 59.367 35.5293 59.1648L13.4268 54.0986C12.4713 53.8991 11.5814 53.4108 10.8569 52.6863C9.86467 51.6941 9.31604 50.3737 9.31604 48.9746C9.31604 47.5728 9.86467 46.2551 10.8569 45.2628C11.5394 44.5803 12.3689 44.1105 13.264 43.8926C13.2903 43.8821 13.3165 43.8768 13.3428 43.8689L24.4728 41.1993C25.1789 41.0234 25.8877 41.4671 26.0557 42.1706C26.2237 42.8767 25.7879 43.5828 25.0844 43.7534L14.0305 46.4047C13.9964 46.4152 13.9623 46.4257 13.9255 46.4336C13.4845 46.5307 13.0645 46.7696 12.7128 47.1213C12.2167 47.6175 11.941 48.2763 11.941 48.9772C11.941 49.6781 12.214 50.3369 12.7128 50.8331C13.0619 51.1822 13.495 51.429 13.9308 51.5261C13.9492 51.5287 13.9649 51.5313 13.9807 51.5366L36.1173 56.6107C39.2227 57.3221 42.4173 56.4033 44.6669 54.1511L55.4084 43.4069C57.1435 41.6718 58.099 39.3644 58.099 36.9101C58.099 34.4557 57.1435 32.1509 55.4084 30.4132L32.206 7.21082C31.1797 6.18445 29.5207 6.18445 28.4943 7.21082C27.4705 8.23457 27.4705 9.89882 28.4943 10.9226C29.0062 11.4344 29.0062 12.2666 28.4943 12.7784C27.9824 13.2903 27.1503 13.2903 26.6384 12.7784C24.5935 10.7336 24.5935 7.39982 26.6384 5.35495C28.6833 3.31007 32.017 3.31007 34.0619 5.35495L57.2643 28.5573C59.4982 30.7886 60.724 33.7522 60.724 36.9101C60.724 40.068 59.4955 43.0316 57.2643 45.2628L46.5228 56.007C44.2705 58.2513 41.2885 59.4667 38.1963 59.4667Z" fill="black"/>
</svg>
