<svg width="61" height="61" viewBox="0 0 61 61" fill="none" xmlns="http://www.w3.org/2000/svg">
<g clip-path="url(#clip0_103_34)">
<path d="M37.3994 24.8339L28.2341 33.4907L23.8355 28.9654C23.3479 28.4633 22.5449 28.4519 22.0433 28.9395C21.5413 29.4277 21.5299 30.2301 22.0175 30.7322L27.2931 36.1478C27.7833 36.6409 28.5753 36.6578 29.0858 36.1856L39.1667 26.6772C39.4115 26.4462 39.5546 26.1274 39.564 25.7913C39.5734 25.4551 39.4488 25.1288 39.2174 24.8845C38.7268 24.3745 37.9178 24.3522 37.3994 24.8339Z" fill="black"/>
<path d="M30.5984 11.5112C20.1237 11.5112 11.6064 20.0285 11.6064 30.5032C11.6064 40.9785 20.1237 49.4957 30.5984 49.4957C41.0737 49.4957 49.5909 40.9785 49.5909 30.5032C49.5909 20.0285 41.0737 11.5112 30.5984 11.5112ZM30.5984 46.9532C21.522 46.9532 14.1489 39.5672 14.1489 30.5032C14.1489 21.4392 21.522 14.0537 30.5984 14.0537C39.6838 14.0537 47.0485 21.4184 47.0485 30.5032C47.0485 39.588 39.6838 46.9532 30.5984 46.9532Z" fill="black"/>
<path d="M56.7349 23.5112L57.1545 15.9727C57.1838 15.4667 56.9087 14.9915 56.4554 14.765L49.7432 11.3709L46.3491 4.65874C46.1182 4.20934 45.6459 3.93573 45.1414 3.95957L37.59 4.36676L31.2974 0.209434C30.8733 -0.070137 30.3236 -0.070137 29.899 0.209434L23.6065 4.36676L16.0684 3.94715C15.5619 3.91736 15.0872 4.19246 14.8608 4.64633L11.4662 11.3585L4.75448 14.7526C4.30459 14.983 4.03147 15.4553 4.05531 15.9603L4.47442 23.4988L0.317589 29.7914C0.0380173 30.2154 0.0380173 30.7652 0.317589 31.1897L4.462 37.4947L4.0424 45.0332C4.0131 45.5392 4.2877 46.0145 4.74157 46.2409L11.4538 49.635L14.8479 56.3472C15.0783 56.7971 15.5505 57.0702 16.0555 57.0464L23.594 56.6268L29.8866 60.7836C30.3082 61.0721 30.8634 61.0721 31.285 60.7836L37.5776 56.6268L45.1161 57.0464C45.6221 57.0757 46.0968 56.8006 46.3238 56.3472L49.7178 49.635L56.43 46.2409C56.8794 46.01 57.1531 45.5382 57.1292 45.0332L56.7096 37.4947L60.8664 31.2021C61.146 30.7781 61.146 30.2279 60.8664 29.8038L56.7349 23.5112ZM54.3703 36.4524C54.2153 36.6799 54.1433 36.9535 54.1672 37.2281L54.5609 44.3594L48.2177 47.5628C47.9759 47.6839 47.7797 47.8806 47.6585 48.1224L44.4546 54.4657L37.3233 54.0719C37.0502 54.0619 36.7806 54.1325 36.5477 54.275L30.5982 58.2034L24.6493 54.275C24.4427 54.1354 24.1994 54.06 23.9501 54.059H23.8865L16.7547 54.4532L13.5513 48.1095C13.4301 47.8677 13.234 47.6715 12.9917 47.5504L6.63551 44.3594L7.02979 37.2281C7.03972 36.955 6.96871 36.6853 6.82619 36.4524L2.89829 30.503L6.82619 24.5535C6.98162 24.3266 7.05363 24.0525 7.02979 23.7784L6.63551 16.6465L12.9793 13.4431C13.2211 13.322 13.4172 13.1258 13.5384 12.884L16.7418 6.54026L23.8736 6.93454C24.1462 6.94398 24.4159 6.87346 24.6493 6.73095L30.5982 2.80304L36.5477 6.73095C36.7751 6.88637 37.0492 6.95838 37.3233 6.93454L44.4546 6.54026L47.6585 12.884C47.7797 13.1258 47.9759 13.322 48.2177 13.4431L54.5609 16.6465L54.1672 23.7784C54.1572 24.051 54.2282 24.3206 54.3703 24.5535L58.2987 30.503L54.3703 36.4524Z" fill="black"/>
</g>
<defs>
<clipPath id="clip0_103_34">
<rect width="61" height="61" fill="white"/>
</clipPath>
</defs>
</svg>
